<?xml version="1.0" encoding="UTF-8" standalone="no"?>
<!-- Created with Inkscape (http://www.inkscape.org/) -->

<svg
   width="210mm"
   height="297mm"
   viewBox="0 0 210 297"
   version="1.1"
   id="svg1"
   inkscape:version="1.4 (86a8ad7, 2024-10-11)"
   sodipodi:docname="display galli].svg"
   inkscape:export-filename="displayaaaaaaaaaaaaaaaaa.png"
   inkscape:export-xdpi="300"
   inkscape:export-ydpi="300"
   xmlns:inkscape="http://www.inkscape.org/namespaces/inkscape"
   xmlns:sodipodi="http://sodipodi.sourceforge.net/DTD/sodipodi-0.dtd"
   xmlns="http://www.w3.org/2000/svg"
   xmlns:svg="http://www.w3.org/2000/svg">
  <sodipodi:namedview
     id="namedview1"
     pagecolor="#ffffff"
     bordercolor="#000000"
     borderopacity="0.25"
     inkscape:showpageshadow="2"
     inkscape:pageopacity="0.0"
     inkscape:pagecheckerboard="0"
     inkscape:deskcolor="#d1d1d1"
     inkscape:document-units="mm"
     inkscape:zoom="1.5832116"
     inkscape:cx="384.66115"
     inkscape:cy="606.0466"
     inkscape:window-width="1920"
     inkscape:window-height="1017"
     inkscape:window-x="760"
     inkscape:window-y="-8"
     inkscape:window-maximized="1"
     inkscape:current-layer="layer9" />
  <defs
     id="defs1">
    <inkscape:path-effect
       effect="powerstroke"
       message=""
       id="path-effect17"
       is_visible="true"
       lpeversion="1.3"
       scale_width="1"
       interpolator_type="CentripetalCatmullRom"
       interpolator_beta="0.2"
       start_linecap_type="peak"
       end_linecap_type="peak"
       offset_points="0.2,1.5 | 0.5,1.5 | 0.8,1.5"
       linejoin_type="round"
       miter_limit="4"
       not_jump="false"
       sort_points="true" />
    <inkscape:path-effect
       effect="powerstroke"
       message=""
       id="path-effect16"
       is_visible="true"
       lpeversion="1.3"
       scale_width="1"
       interpolator_type="CentripetalCatmullRom"
       interpolator_beta="0.2"
       start_linecap_type="peak"
       end_linecap_type="peak"
       offset_points="0.2,1.5 | 0.5,1.5 | 0.8,1.5 | 1.2,1.5 | 1.5,1.5 | 1.8,1.5"
       linejoin_type="round"
       miter_limit="4"
       not_jump="false"
       sort_points="true" />
    <inkscape:path-effect
       effect="mirror_symmetry"
       start_point="105,134.49792"
       end_point="105,135.93246"
       center_point="105,135.21519"
       id="path-effect15"
       is_visible="true"
       lpeversion="1.2"
       lpesatellites=""
       mode="free"
       discard_orig_path="false"
       fuse_paths="false"
       oposite_fuse="false"
       split_items="false"
       split_open="false"
       link_styles="false" />
    <inkscape:path-effect
       effect="mirror_symmetry"
       start_point="0,24.671015"
       end_point="0,25.05057"
       center_point="0,24.860793"
       id="path-effect11"
       is_visible="true"
       lpeversion="1.2"
       lpesatellites=""
       mode="free"
       discard_orig_path="false"
       fuse_paths="false"
       oposite_fuse="false"
       split_items="false"
       split_open="false"
       link_styles="false" />
    <inkscape:path-effect
       effect="mirror_symmetry"
       start_point="105,99.59457"
       end_point="105,216.78263"
       center_point="105,158.1886"
       id="path-effect23"
       is_visible="true"
       lpeversion="1.2"
       lpesatellites=""
       mode="free"
       discard_orig_path="false"
       fuse_paths="false"
       oposite_fuse="false"
       split_items="false"
       split_open="false"
       link_styles="false" />
    <inkscape:path-effect
       effect="powerstroke"
       message=""
       id="path-effect22"
       is_visible="true"
       lpeversion="1.3"
       scale_width="1"
       interpolator_type="CentripetalCatmullRom"
       interpolator_beta="0.2"
       start_linecap_type="peak"
       end_linecap_type="peak"
       offset_points="0.2,1.5 | 0.5,1.5 | 0.8,1.5 | 1.2,1.5 | 1.5,1.5 | 1.8,1.5"
       linejoin_type="round"
       miter_limit="4"
       not_jump="false"
       sort_points="true" />
    <inkscape:path-effect
       effect="powerstroke"
       message=""
       id="path-effect21"
       is_visible="true"
       lpeversion="1.3"
       scale_width="1"
       interpolator_type="CentripetalCatmullRom"
       interpolator_beta="0.2"
       start_linecap_type="peak"
       end_linecap_type="peak"
       offset_points="0.2,1.5 | 0.5,1.5 | 0.8,1.5 | 1.2,1.5 | 1.5,1.5 | 1.8,1.5"
       linejoin_type="round"
       miter_limit="4"
       not_jump="false"
       sort_points="true" />
    <inkscape:path-effect
       effect="powerstroke"
       message=""
       id="path-effect20"
       is_visible="true"
       lpeversion="1.3"
       scale_width="1"
       interpolator_type="CentripetalCatmullRom"
       interpolator_beta="0.2"
       start_linecap_type="zerowidth"
       end_linecap_type="zerowidth"
       offset_points="0.2,1.5 | 0.5,1.5 | 0.8,1.5 | 1.2,1.5 | 1.5,1.5 | 1.8,1.5"
       linejoin_type="round"
       miter_limit="4"
       not_jump="false"
       sort_points="true" />
    <inkscape:path-effect
       effect="powerstroke"
       message=""
       id="path-effect19"
       is_visible="true"
       lpeversion="1.3"
       scale_width="1"
       interpolator_type="CentripetalCatmullRom"
       interpolator_beta="0.2"
       start_linecap_type="peak"
       end_linecap_type="peak"
       offset_points="0.2,1.5 | 0.5,1.5 | 0.8,1.5"
       linejoin_type="round"
       miter_limit="4"
       not_jump="false"
       sort_points="true" />
    <inkscape:path-effect
       effect="powerstroke"
       message=""
       id="path-effect18"
       is_visible="true"
       lpeversion="1.3"
       scale_width="1"
       interpolator_type="CentripetalCatmullRom"
       interpolator_beta="0.2"
       start_linecap_type="peak"
       end_linecap_type="peak"
       offset_points="0.2,1.5 | 0.5,1.5 | 0.8,1.5"
       linejoin_type="round"
       miter_limit="4"
       not_jump="false"
       sort_points="true" />
    <inkscape:path-effect
       effect="powerstroke"
       message=""
       id="path-effect14"
       is_visible="true"
       lpeversion="1.3"
       scale_width="1"
       interpolator_type="CentripetalCatmullRom"
       interpolator_beta="0.2"
       start_linecap_type="peak"
       end_linecap_type="peak"
       offset_points="0.19999997,1.5 | 0.49999998,1.5 | 0.79999999,1.5 | 0,1.5 | 0,1.5 | 0,1.5"
       linejoin_type="round"
       miter_limit="4"
       not_jump="false"
       sort_points="true" />
    <inkscape:path-effect
       effect="powerstroke"
       message=""
       id="path-effect13"
       is_visible="true"
       lpeversion="1.3"
       scale_width="1"
       interpolator_type="CentripetalCatmullRom"
       interpolator_beta="0.2"
       start_linecap_type="peak"
       end_linecap_type="peak"
       offset_points="0.2,1.5 | 0.5,1.5 | 0.8,1.5 | 0,1.5 | 0,1.5 | 0,1.5"
       linejoin_type="round"
       miter_limit="4"
       not_jump="false"
       sort_points="true" />
    <inkscape:path-effect
       effect="powerstroke"
       message=""
       id="path-effect12"
       is_visible="true"
       lpeversion="1.3"
       scale_width="1"
       interpolator_type="CentripetalCatmullRom"
       interpolator_beta="0.2"
       start_linecap_type="peak"
       end_linecap_type="peak"
       offset_points="0.2,1.5 | 0.5,1.5 | 0.8,1.5 | 1.22094e-16,1.5 | 1.22094e-16,1.5 | 1.22094e-16,1.5"
       linejoin_type="round"
       miter_limit="4"
       not_jump="false"
       sort_points="true" />
    <inkscape:path-effect
       effect="mirror_symmetry"
       start_point="105,152.3802"
       end_point="105,209.65867"
       center_point="105,181.01943"
       id="path-effect10"
       is_visible="true"
       lpeversion="1.2"
       lpesatellites=""
       mode="free"
       discard_orig_path="false"
       fuse_paths="false"
       oposite_fuse="false"
       split_items="false"
       split_open="false"
       link_styles="false" />
    <inkscape:path-effect
       effect="powerstroke"
       message=""
       id="path-effect9"
       is_visible="true"
       lpeversion="1.3"
       scale_width="1"
       interpolator_type="CentripetalCatmullRom"
       interpolator_beta="0.2"
       start_linecap_type="peak"
       end_linecap_type="peak"
       offset_points="0.2,1.5 | 0.5,1.5 | 0.8,1.5"
       linejoin_type="round"
       miter_limit="4"
       not_jump="false"
       sort_points="true" />
    <inkscape:path-effect
       effect="powerstroke"
       message=""
       id="path-effect8"
       is_visible="true"
       lpeversion="1.3"
       scale_width="1"
       interpolator_type="CentripetalCatmullRom"
       interpolator_beta="0.2"
       start_linecap_type="peak"
       end_linecap_type="peak"
       offset_points="0.20000005,1.5 | 0.50000013,1.5 | 0.80000021,1.5"
       linejoin_type="round"
       miter_limit="4"
       not_jump="false"
       sort_points="true" />
    <inkscape:path-effect
       effect="powerstroke"
       message=""
       id="path-effect7"
       is_visible="true"
       lpeversion="1.3"
       scale_width="1"
       interpolator_type="CentripetalCatmullRom"
       interpolator_beta="0.2"
       start_linecap_type="peak"
       end_linecap_type="peak"
       offset_points="0.2,1.5 | 0.5,1.5 | 0.8,1.5"
       linejoin_type="round"
       miter_limit="4"
       not_jump="false"
       sort_points="true" />
    <inkscape:path-effect
       effect="powerstroke"
       message=""
       id="path-effect6"
       is_visible="true"
       lpeversion="1.3"
       scale_width="1"
       interpolator_type="CentripetalCatmullRom"
       interpolator_beta="0.2"
       start_linecap_type="peak"
       end_linecap_type="peak"
       offset_points="0.20000012,1.5 | 0.49999995,1.5 | 0.79999976,1.5"
       linejoin_type="round"
       miter_limit="4"
       not_jump="false"
       sort_points="true" />
    <inkscape:path-effect
       effect="powerstroke"
       message=""
       id="path-effect5"
       is_visible="true"
       lpeversion="1.3"
       scale_width="1"
       interpolator_type="CentripetalCatmullRom"
       interpolator_beta="0.2"
       start_linecap_type="peak"
       end_linecap_type="peak"
       offset_points="0.2,1.5 | 0.5,1.5 | 0.8,1.5"
       linejoin_type="round"
       miter_limit="4"
       not_jump="false"
       sort_points="true" />
    <inkscape:path-effect
       effect="powerstroke"
       message=""
       id="path-effect3"
       is_visible="true"
       lpeversion="1.3"
       scale_width="1"
       interpolator_type="CentripetalCatmullRom"
       interpolator_beta="0.2"
       start_linecap_type="peak"
       end_linecap_type="peak"
       offset_points="0.2,1.5 | 0.5,1.5 | 0.8,1.5"
       linejoin_type="round"
       miter_limit="4"
       not_jump="false"
       sort_points="true" />
    <inkscape:path-effect
       effect="powerstroke"
       message=""
       id="path-effect1"
       is_visible="true"
       lpeversion="1.3"
       scale_width="1"
       interpolator_type="CentripetalCatmullRom"
       interpolator_beta="0.2"
       start_linecap_type="peak"
       end_linecap_type="peak"
       offset_points="0.2,1.5 | 0.5,1.5 | 0.8,1.5"
       linejoin_type="round"
       miter_limit="4"
       not_jump="false"
       sort_points="true" />
    <inkscape:path-effect
       effect="mirror_symmetry"
       start_point="132.56782,204.51859"
       end_point="132.56782,211.19939"
       center_point="132.56782,207.85899"
       id="path-effect46"
       is_visible="true"
       lpeversion="1.2"
       lpesatellites=""
       mode="free"
       discard_orig_path="false"
       fuse_paths="false"
       oposite_fuse="false"
       split_items="false"
       split_open="false"
       link_styles="false" />
    <inkscape:path-effect
       effect="fill_between_many"
       method="bsplinespiro"
       autoreverse="false"
       close="false"
       join="false"
       linkedpaths="#path47,0,1"
       id="path-effect2" />
    <inkscape:path-effect
       effect="fill_between_many"
       method="bsplinespiro"
       autoreverse="false"
       close="false"
       join="false"
       linkedpaths="#path3,0,1"
       id="path-effect4" />
    <inkscape:path-effect
       effect="powerstroke"
       message=""
       id="path-effect22-4"
       is_visible="true"
       lpeversion="1.3"
       scale_width="1"
       interpolator_type="CentripetalCatmullRom"
       interpolator_beta="0.2"
       start_linecap_type="peak"
       end_linecap_type="peak"
       offset_points="0.2,1.5 | 0.5,1.5 | 0.8,1.5 | 1.2,1.5 | 1.5,1.5 | 1.8,1.5"
       linejoin_type="round"
       miter_limit="4"
       not_jump="false"
       sort_points="true" />
    <inkscape:path-effect
       effect="powerstroke"
       message=""
       id="path-effect16-4"
       is_visible="true"
       lpeversion="1.3"
       scale_width="1"
       interpolator_type="CentripetalCatmullRom"
       interpolator_beta="0.2"
       start_linecap_type="peak"
       end_linecap_type="peak"
       offset_points="0.2,1.5 | 0.5,1.5 | 0.8,1.5 | 1.2,1.5 | 1.5,1.5 | 1.8,1.5"
       linejoin_type="round"
       miter_limit="4"
       not_jump="false"
       sort_points="true" />
    <inkscape:path-effect
       effect="powerstroke"
       message=""
       id="path-effect16-4-5"
       is_visible="true"
       lpeversion="1.3"
       scale_width="1"
       interpolator_type="CentripetalCatmullRom"
       interpolator_beta="0.2"
       start_linecap_type="peak"
       end_linecap_type="peak"
       offset_points="0.2,1.5 | 0.5,1.5 | 0.8,1.5 | 1.2,1.5 | 1.5,1.5 | 1.8,1.5"
       linejoin_type="round"
       miter_limit="4"
       not_jump="false"
       sort_points="true" />
    <inkscape:path-effect
       effect="powerstroke"
       message=""
       id="path-effect16-4-5-1"
       is_visible="true"
       lpeversion="1.3"
       scale_width="1"
       interpolator_type="CentripetalCatmullRom"
       interpolator_beta="0.2"
       start_linecap_type="peak"
       end_linecap_type="peak"
       offset_points="0.2,1.5 | 0.5,1.5 | 0.8,1.5 | 1.2,1.5 | 1.5,1.5 | 1.8,1.5"
       linejoin_type="round"
       miter_limit="4"
       not_jump="false"
       sort_points="true" />
    <inkscape:path-effect
       effect="powerstroke"
       message=""
       id="path-effect16-4-5-1-1"
       is_visible="true"
       lpeversion="1.3"
       scale_width="1"
       interpolator_type="CentripetalCatmullRom"
       interpolator_beta="0.2"
       start_linecap_type="peak"
       end_linecap_type="peak"
       offset_points="0.2,1.5 | 0.5,1.5 | 0.8,1.5 | 1.2,1.5 | 1.5,1.5 | 1.8,1.5"
       linejoin_type="round"
       miter_limit="4"
       not_jump="false"
       sort_points="true" />
    <inkscape:path-effect
       effect="powerstroke"
       message=""
       id="path-effect16-2"
       is_visible="true"
       lpeversion="1.3"
       scale_width="1"
       interpolator_type="CentripetalCatmullRom"
       interpolator_beta="0.2"
       start_linecap_type="peak"
       end_linecap_type="peak"
       offset_points="0.2,1.5 | 0.5,1.5 | 0.8,1.5 | 1.2,1.5 | 1.5,1.5 | 1.8,1.5"
       linejoin_type="round"
       miter_limit="4"
       not_jump="false"
       sort_points="true" />
    <inkscape:path-effect
       effect="powerstroke"
       message=""
       id="path-effect16-2-7"
       is_visible="true"
       lpeversion="1.3"
       scale_width="1"
       interpolator_type="CentripetalCatmullRom"
       interpolator_beta="0.2"
       start_linecap_type="peak"
       end_linecap_type="peak"
       offset_points="0.2,1.5 | 0.5,1.5 | 0.8,1.5 | 1.2,1.5 | 1.5,1.5 | 1.8,1.5"
       linejoin_type="round"
       miter_limit="4"
       not_jump="false"
       sort_points="true" />
    <inkscape:path-effect
       effect="powerstroke"
       message=""
       id="path-effect17-4"
       is_visible="true"
       lpeversion="1.3"
       scale_width="1"
       interpolator_type="CentripetalCatmullRom"
       interpolator_beta="0.2"
       start_linecap_type="peak"
       end_linecap_type="peak"
       offset_points="0.2,1.5 | 0.5,1.5 | 0.8,1.5"
       linejoin_type="round"
       miter_limit="4"
       not_jump="false"
       sort_points="true" />
    <inkscape:path-effect
       effect="powerstroke"
       message=""
       id="path-effect17-4-3"
       is_visible="true"
       lpeversion="1.3"
       scale_width="1"
       interpolator_type="CentripetalCatmullRom"
       interpolator_beta="0.2"
       start_linecap_type="peak"
       end_linecap_type="peak"
       offset_points="0.2,1.5 | 0.5,1.5 | 0.80000002,1.5"
       linejoin_type="round"
       miter_limit="4"
       not_jump="false"
       sort_points="true" />
    <inkscape:path-effect
       effect="powerstroke"
       message=""
       id="path-effect17-4-3-8"
       is_visible="true"
       lpeversion="1.3"
       scale_width="1"
       interpolator_type="CentripetalCatmullRom"
       interpolator_beta="0.2"
       start_linecap_type="peak"
       end_linecap_type="peak"
       offset_points="0.19999997,1.5 | 0.49999999,1.5 | 0.80000004,1.5"
       linejoin_type="round"
       miter_limit="4"
       not_jump="false"
       sort_points="true" />
  </defs>
  <g
     inkscape:groupmode="layer"
     id="layer8"
     inkscape:label="Layer 1"
     style="display:none;opacity:0.5"
     sodipodi:insensitive="true">
    <path
       sodipodi:type="star"
       style="opacity:1;fill:none;fill-rule:evenodd;stroke:#000000;stroke-width:3;stroke-linecap:round;stroke-linejoin:round;stroke-opacity:1"
       id="path41"
       inkscape:flatsided="true"
       sodipodi:sides="6"
       sodipodi:cx="133.62283"
       sodipodi:cy="252.40181"
       sodipodi:r1="44.105705"
       sodipodi:r2="38.196659"
       sodipodi:arg1="2.0943951"
       sodipodi:arg2="2.6179939"
       inkscape:rounded="0"
       inkscape:randomized="0"
       d="m 111.56998,290.59847 -22.052852,-38.19666 22.052852,-38.19666 44.10571,0 22.05285,38.19666 -22.05285,38.19666 z"
       transform="translate(-28.622833,-78.989955)" />
    <path
       sodipodi:type="star"
       style="fill:none;fill-rule:evenodd;stroke:#000000;stroke-width:3;stroke-linecap:round;stroke-linejoin:round;stroke-opacity:1"
       id="path41-1"
       inkscape:flatsided="true"
       sodipodi:sides="6"
       sodipodi:cx="133.62283"
       sodipodi:cy="252.40181"
       sodipodi:r1="44.105705"
       sodipodi:r2="38.196659"
       sodipodi:arg1="2.0943951"
       sodipodi:arg2="2.6179939"
       inkscape:rounded="0"
       inkscape:randomized="0"
       d="m 111.56998,290.59847 -22.052852,-38.19666 22.052852,-38.19666 44.10571,0 22.05285,38.19666 -22.05285,38.19666 z"
       transform="translate(-28.622833,-117.18662)" />
    <path
       style="fill:none;fill-rule:evenodd;stroke:#000000;stroke-width:3;stroke-linecap:round;stroke-linejoin:round;stroke-opacity:1"
       d="m 60.894299,173.41185 c 88.211401,0 88.211401,0 88.211401,0"
       id="path42" />
    <path
       style="fill:none;fill-rule:evenodd;stroke:#000000;stroke-width:3;stroke-linecap:round;stroke-linejoin:round;stroke-opacity:1"
       d="M 105,97.018537 V 135.2152"
       id="path43" />
    <rect
       style="fill:none;fill-rule:evenodd;stroke:#000000;stroke-width:3;stroke-linecap:round;stroke-linejoin:round;stroke-dasharray:none;stroke-opacity:1"
       id="rect43"
       width="15.554269"
       height="15.210347"
       x="97.222862"
       y="165.8091" />
    <rect
       style="fill:none;fill-rule:evenodd;stroke:#000000;stroke-width:3;stroke-linecap:round;stroke-linejoin:round;stroke-dasharray:none;stroke-opacity:1"
       id="rect44"
       width="15.554269"
       height="15.210347"
       x="97.222862"
       y="150.56813" />
    <rect
       style="fill:none;fill-rule:evenodd;stroke:#000000;stroke-width:3;stroke-linecap:round;stroke-linejoin:round;stroke-dasharray:none;stroke-opacity:1"
       id="rect43-4"
       width="15.554269"
       height="15.210347"
       x="97.222862"
       y="181.01944" />
    <path
       style="fill:none;fill-rule:evenodd;stroke:#000000;stroke-width:3;stroke-linecap:round;stroke-linejoin:round;stroke-dasharray:none;stroke-opacity:1"
       d="m 104.99999,150.56813 2e-5,15.24095"
       id="path44" />
    <path
       style="fill:none;fill-rule:evenodd;stroke:#000000;stroke-width:3;stroke-linecap:round;stroke-linejoin:round;stroke-dasharray:none;stroke-opacity:1"
       d="m 105,181.01943 v 15.21036"
       id="path45" />
    <circle
       style="fill:#000000;fill-opacity:1;fill-rule:evenodd;stroke:none;stroke-width:3.00001;stroke-linecap:round;stroke-linejoin:round;stroke-opacity:1"
       id="path46"
       cx="105"
       cy="143.2379"
       r="3.3403986" />
    <path
       style="fill:#000000;fill-opacity:1;fill-rule:evenodd;stroke:none;stroke-width:3.00001;stroke-linecap:round;stroke-linejoin:round;stroke-opacity:1"
       id="path46-9-8"
       inkscape:path-effect="#path-effect46"
       sodipodi:type="arc"
       sodipodi:cx="115.33885"
       sodipodi:cy="211.19939"
       sodipodi:rx="3.3403986"
       sodipodi:ry="3.3403986"
       d="m 118.67925,211.19939 c 0,1.84485 -1.49555,3.3404 -3.3404,3.3404 -1.84485,0 -3.3404,-1.49555 -3.3404,-3.3404 0,-1.84485 1.49555,-3.3404 3.3404,-3.3404 1.84485,0 3.3404,1.49555 3.3404,3.3404 z m 27.77714,0 c 0,1.84485 1.49555,3.3404 3.3404,3.3404 1.84485,0 3.3404,-1.49555 3.3404,-3.3404 0,-1.84485 -1.49555,-3.3404 -3.3404,-3.3404 -1.84485,0 -3.3404,1.49555 -3.3404,3.3404 z"
       transform="translate(-27.56782,-67.961494)" />
  </g>
  <g
     inkscape:groupmode="layer"
     id="layer9"
     inkscape:label="aaa"
     inkscape:path-effect="#path-effect23">
    <path
       style="display:none;fill:#000000;fill-opacity:1;fill-rule:nonzero;stroke:none;stroke-width:3;stroke-linecap:round;stroke-linejoin:round;stroke-dasharray:none;stroke-dashoffset:0;stroke-opacity:1"
       d="M 82.947146,213.10851 H 91.768287 105 h 13.23171 8.82114 l 1.5,-1.5 -1.5,-1.5 H 118.23171 105 91.768287 82.947146 l -1.5,1.5 z m 44.105704,0 H 118.23171 105 91.76829 82.94715 l -1.5,-1.5 1.5,-1.5 H 91.76829 105 h 13.23171 8.82114 l 1.5,1.5 z"
       id="path47"
       inkscape:path-effect="#path-effect1"
       inkscape:original-d="M 82.947146,211.60851 H 127.05285"
       inkscape:linked-fill="path2" />
    <path
       inkscape:original-d="M 0,0"
       inkscape:path-effect="#path-effect4"
       d="m 148.22444,174.93825 -20.33587,35.22276"
       id="path4"
       style="fill:#cb2c2c" />
    <path
       style="fill:#000000;fill-rule:nonzero;stroke:none;stroke-width:3;stroke-linecap:round;stroke-linejoin:round;stroke-opacity:1"
       d="m 146.9254,174.18825 -4.06717,7.04455 c -1.82816,3.16646 -4.06718,7.04455 -6.10076,10.56683 -2.03359,3.52228 -4.27261,7.40037 -6.10076,10.56683 -1.49268,2.5854 -3.38932,5.87046 -4.06718,7.04455 l 0.54904,2.04904 2.04904,-0.54904 4.06717,-7.04455 c 1.82816,-3.16646 4.06718,-7.04455 6.10076,-10.56683 2.03359,-3.52228 4.27261,-7.40037 6.10076,-10.56683 1.49268,-2.5854 3.38932,-5.87046 4.06718,-7.04455 l -0.54904,-2.04904 z m -83.8508,0 4.06717,7.04455 c 1.82816,3.16646 4.06718,7.04455 6.10076,10.56683 2.03359,3.52228 4.27261,7.40037 6.10076,10.56683 1.49268,2.5854 3.38932,5.87046 4.06718,7.04455 l -0.54904,2.04904 -2.04904,-0.54904 -4.06717,-7.04455 c -1.82816,-3.16646 -4.06718,-7.04455 -6.10076,-10.56683 -2.03359,-3.52228 -4.27261,-7.40037 -6.10076,-10.56683 -1.49268,-2.5854 -3.38932,-5.87046 -4.06718,-7.04455 l 0.54904,-2.04904 z"
       id="path3"
       inkscape:path-effect="#path-effect3"
       inkscape:original-d="m 148.22444,174.93825 -20.33587,35.22276"
       inkscape:linked-fill="path4"
       sodipodi:nodetypes="cc" />
    <path
       style="fill:#000000;fill-rule:nonzero;stroke:none;stroke-width:3;stroke-linecap:round;stroke-linejoin:round;stroke-opacity:1"
       d="m 145.90359,171.91185 h -3.22847 -4.8427 -4.8427 -3.22847 l -1.5,1.5 1.5,1.5 h 3.22847 4.8427 4.8427 3.22847 l 1.5,-1.5 z m -81.80718,0 h 3.22847 4.8427 4.8427 3.22847 l 1.5,1.5 -1.5,1.5 h -3.22847 -4.8427 -4.8427 -3.22847 l -1.5,-1.5 z"
       id="path6"
       inkscape:path-effect="#path-effect6"
       inkscape:original-d="M 145.90359,173.41185 H 129.76125"
       sodipodi:nodetypes="cc" />
    <path
       style="fill:#000000;fill-rule:nonzero;stroke:none;stroke-width:3;stroke-linecap:round;stroke-linejoin:round;stroke-opacity:1"
       d="m 129.69781,171.83066 c 0.2793,-0.48376 1.06077,-1.83731 1.6758,-2.90258 0.75326,-1.30468 1.67581,-2.90258 2.51371,-4.35387 0.8379,-1.45129 1.76045,-3.04919 2.51371,-4.35387 0.61503,-1.06526 1.3965,-2.41881 1.6758,-2.90257 l -0.54904,-2.04904 -2.04904,0.54904 c -0.2793,0.48376 -1.06077,1.83731 -1.6758,2.90258 -0.75326,1.30467 -1.6758,2.90257 -2.51371,4.35386 -0.8379,1.45129 -1.76045,3.04919 -2.5137,4.35387 -0.61504,1.06527 -1.39651,2.41882 -1.67581,2.90258 l 0.54904,2.04904 z m -49.39562,0 c -0.2793,-0.48376 -1.06077,-1.83731 -1.6758,-2.90258 -0.75326,-1.30468 -1.67581,-2.90258 -2.51371,-4.35387 -0.8379,-1.45129 -1.76045,-3.04919 -2.51371,-4.35387 -0.61503,-1.06526 -1.3965,-2.41881 -1.6758,-2.90257 l 0.54904,-2.04904 2.04904,0.54904 c 0.2793,0.48376 1.06077,1.83731 1.6758,2.90258 0.75326,1.30467 1.6758,2.90257 2.51371,4.35386 0.8379,1.45129 1.76045,3.04919 2.5137,4.35387 0.61504,1.06527 1.39651,2.41882 1.67581,2.90258 l -0.54904,2.04904 z"
       id="path8"
       inkscape:path-effect="#path-effect8"
       inkscape:original-d="m 128.39877,171.08066 8.37902,-14.51289"
       sodipodi:nodetypes="cc" />
    <path
       style="fill:#000000;fill-rule:nonzero;stroke:none;stroke-width:3;stroke-linecap:round;stroke-linejoin:round;stroke-opacity:1"
       d="m 149.5084,171.10934 c -0.29422,-0.5096 -1.11743,-1.93544 -1.76531,-3.0576 -0.79348,-1.37436 -1.7653,-3.0576 -2.64796,-4.5864 -0.88265,-1.5288 -1.85447,-3.21204 -2.64796,-4.5864 -0.64788,-1.12216 -1.47108,-2.548 -1.7653,-3.0576 l -2.04904,-0.54904 -0.54904,2.04904 c 0.29422,0.5096 1.11743,1.93544 1.76531,3.0576 0.79348,1.37436 1.7653,3.0576 2.64796,4.5864 0.88265,1.5288 1.85447,3.21204 2.64796,4.5864 0.64788,1.12216 1.47108,2.548 1.7653,3.0576 l 2.04904,0.54904 z m -89.0168,0 c 0.29422,-0.5096 1.11743,-1.93544 1.76531,-3.0576 0.79348,-1.37436 1.7653,-3.0576 2.64796,-4.5864 0.88265,-1.5288 1.85447,-3.21204 2.64796,-4.5864 0.64788,-1.12216 1.47108,-2.548 1.7653,-3.0576 l 2.04904,-0.54904 0.54904,2.04904 c -0.29422,0.5096 -1.11743,1.93544 -1.76531,3.0576 -0.79348,1.37436 -1.7653,3.0576 -2.64796,4.5864 -0.88265,1.5288 -1.85447,3.21204 -2.64796,4.5864 -0.64788,1.12216 -1.47108,2.548 -1.7653,3.0576 l -2.04904,0.54904 z"
       id="path9"
       inkscape:path-effect="#path-effect9"
       inkscape:original-d="m 148.20936,171.85934 -8.82653,-15.288"
       sodipodi:nodetypes="cc" />
    <path
       style="fill:#000000;fill-rule:nonzero;stroke:none;stroke-width:3;stroke-linecap:round;stroke-linejoin:round;stroke-opacity:1"
       d="m 126.55017,137.34453 v 0 c 0,0 -0.10899,-0.18878 0,0 0.29761,0.51548 1.13031,1.95776 1.78566,3.09285 0.80264,1.39021 1.78567,3.09286 2.6785,4.63929 0.89283,1.54642 1.87585,3.24907 2.67849,4.63928 0.65535,1.1351 1.48805,2.57737 1.78566,3.09285 l 2.04904,0.54904 0.54904,-2.04904 c -0.29761,-0.51548 -1.13031,-1.95776 -1.78566,-3.09285 -0.80264,-1.39021 -1.78567,-3.09286 -2.6785,-4.63929 -0.89283,-1.54642 -1.87585,-3.24907 -2.67849,-4.63928 -0.65535,-1.1351 -1.48805,-2.57737 -1.78566,-3.09285 -0.10899,-0.18878 0,0 0,0 l -2.04904,-0.54904 z m -43.10034,0 v 0 c 0,0 0.10899,-0.18878 0,0 -0.29761,0.51548 -1.13031,1.95776 -1.78566,3.09285 -0.80264,1.39021 -1.78567,3.09286 -2.6785,4.63929 -0.89283,1.54642 -1.87585,3.24907 -2.67849,4.63928 -0.65535,1.1351 -1.48805,2.57737 -1.78566,3.09285 l -2.04904,0.54904 -0.54904,-2.04904 c 0.29761,-0.51548 1.13031,-1.95776 1.78566,-3.09285 0.80264,-1.39021 1.78567,-3.09286 2.6785,-4.63929 0.89283,-1.54642 1.87585,-3.24907 2.67849,-4.63928 0.65535,-1.1351 1.48805,-2.57737 1.78566,-3.09285 0.10899,-0.18878 0,0 0,0 l 2.04904,-0.54904 z"
       id="path12"
       inkscape:original-d="m 127.84921,136.59453 8.92831,15.46427"
       inkscape:path-effect="#path-effect12"
       sodipodi:nodetypes="cc" />
    <path
       style="fill:#000000;fill-rule:nonzero;stroke:none;stroke-width:3;stroke-linecap:round;stroke-linejoin:round;stroke-opacity:1"
       d="m 147.00478,135.85409 c 0,0 0.10897,-0.18874 0,0 -0.29725,0.51485 -1.12893,1.95537 -1.78349,3.08909 -0.80166,1.38852 -1.78348,3.08909 -2.67523,4.63364 -0.89174,1.54455 -1.87357,3.24512 -2.67523,4.63364 -0.65455,1.13372 -1.48624,2.57424 -1.78349,3.08909 l 0.54904,2.04904 2.04904,-0.54904 c 0.29725,-0.51485 1.12893,-1.95537 1.78349,-3.08909 0.80166,-1.38852 1.78348,-3.08909 2.67523,-4.63364 0.89174,-1.54455 1.87357,-3.24512 2.67523,-4.63364 0.65455,-1.13372 1.48624,-2.57424 1.78349,-3.08909 0.10897,-0.18874 0,0 0,0 l -0.54904,-2.04904 z m -84.00956,0 c 0,0 -0.10897,-0.18874 0,0 0.29725,0.51485 1.12893,1.95537 1.78349,3.08909 0.80166,1.38852 1.78348,3.08909 2.67523,4.63364 0.89174,1.54455 1.87357,3.24512 2.67523,4.63364 0.65455,1.13372 1.48624,2.57424 1.78349,3.08909 l -0.54904,2.04904 -2.04904,-0.54904 c -0.29725,-0.51485 -1.12893,-1.95537 -1.78349,-3.08909 -0.80166,-1.38852 -1.78348,-3.08909 -2.67523,-4.63364 -0.89174,-1.54455 -1.87357,-3.24512 -2.67523,-4.63364 -0.65455,-1.13372 -1.48624,-2.57424 -1.78349,-3.08909 -0.10897,-0.18874 0,0 0,0 l 0.54904,-2.04904 z"
       id="path13"
       inkscape:original-d="m 148.30382,136.60409 -8.91744,15.44546"
       inkscape:path-effect="#path-effect13"
       sodipodi:nodetypes="cc" />
    <path
       style="fill:#000000;fill-rule:nonzero;stroke:none;stroke-width:3;stroke-linecap:round;stroke-linejoin:round;stroke-opacity:1"
       d="m 126.52325,99.101231 c 0,0 -0.12351,-0.213929 0,0 0.68261,1.182319 2.59253,4.490399 4.09567,7.093909 1.84096,3.18864 4.09567,7.09391 6.14351,10.64086 2.04783,3.54696 4.30254,7.45223 6.1435,10.64087 1.50314,2.60351 3.41306,5.91159 4.09567,7.09391 l 2.04904,0.54904 0.54904,-2.04904 c -0.68261,-1.18232 -2.59253,-4.4904 -4.09567,-7.09391 -1.84096,-3.18864 -4.09567,-7.09391 -6.14351,-10.64087 -2.04783,-3.54695 -4.30254,-7.45222 -6.1435,-10.64086 -1.50314,-2.60351 -3.41306,-5.911591 -4.09567,-7.093909 -0.12351,-0.213928 0,0 0,0 l -2.04904,-0.549038 z m -43.0465,0 c 0,0 0.12351,-0.213929 0,0 -0.68261,1.182319 -2.59253,4.490399 -4.09567,7.093909 -1.84096,3.18864 -4.09567,7.09391 -6.14351,10.64086 -2.04783,3.54696 -4.30254,7.45223 -6.1435,10.64087 -1.50314,2.60351 -3.41306,5.91159 -4.09567,7.09391 l -2.04904,0.54904 -0.54904,-2.04904 c 0.68261,-1.18232 2.59253,-4.4904 4.09567,-7.09391 1.84096,-3.18864 4.09567,-7.09391 6.14351,-10.64087 2.04783,-3.54695 4.30254,-7.45222 6.1435,-10.64086 1.50314,-2.60351 3.41306,-5.911591 4.09567,-7.093909 0.12351,-0.213928 0,0 0,0 l 2.04904,-0.549038 z"
       id="path14"
       inkscape:original-d="m 127.82229,98.351231 20.47835,35.469549"
       inkscape:path-effect="#path-effect14"
       sodipodi:nodetypes="cc" />
  </g>
  <g
     inkscape:groupmode="layer"
     id="layer2"
     inkscape:label="opa"
     style="display:inline"
     inkscape:path-effect="#path-effect15">
    <path
       style="fill:#000000;fill-rule:nonzero;stroke:none;stroke-width:3;stroke-linecap:round;stroke-linejoin:round"
       d="m 111.27713,182.58256 v 2.42985 3.64477 3.64477 2.42985 l 1.5,1.5 1.5,-1.5 v -2.42985 -3.64477 -3.64477 -2.42985 l -1.5,-1.5 z m -12.55426,0 v 2.42985 3.64477 3.64477 2.42985 l -1.5,1.5 -1.5,-1.5 v -2.42985 -3.64477 -3.64477 -2.42985 l 1.5,-1.5 z"
       id="path15"
       inkscape:original-d="M 112.77713,182.58256 V 194.7318"
       sodipodi:nodetypes="cc"
       inkscape:path-effect="#path-effect16" />
    <path
       style="fill:#000000;fill-rule:nonzero;stroke:none;stroke-width:3;stroke-linecap:round;stroke-linejoin:round"
       d="m 111.27713,182.58256 v 2.42985 3.64477 3.64477 2.42985 l 1.5,1.5 1.5,-1.5 v -2.42985 -3.64477 -3.64477 -2.42985 l -1.5,-1.5 z m -12.554262,0 v 2.42985 3.64477 3.64477 2.42985 l -1.5,1.5 -1.5,-1.5 v -2.42985 -3.64477 -3.64477 -2.42985 l 1.5,-1.5 z"
       id="path15-6"
       inkscape:original-d="M 112.77713,182.58256 V 194.7318"
       inkscape:path-effect="#path-effect16-2"
       sodipodi:nodetypes="cc"
       transform="translate(1.0806274e-6,-15.242909)" />
    <path
       style="fill:#000000;fill-rule:nonzero;stroke:none;stroke-width:3;stroke-linecap:round;stroke-linejoin:round"
       d="m 111.27713,182.58256 v 2.42985 3.64477 3.64477 2.42985 l 1.5,1.5 1.5,-1.5 v -2.42985 -3.64477 -3.64477 -2.42985 l -1.5,-1.5 z m -12.554262,0 v 2.42985 3.64477 3.64477 2.42985 l -1.5,1.5 -1.5,-1.5 v -2.42985 -3.64477 -3.64477 -2.42985 l 1.5,-1.5 z"
       id="path15-6-1"
       inkscape:original-d="M 112.77713,182.58256 V 194.7318"
       inkscape:path-effect="#path-effect16-2-7"
       sodipodi:nodetypes="cc"
       transform="translate(1.0806274e-6,-30.483876)" />
  </g>
  <g
     inkscape:groupmode="layer"
     id="layer3"
     inkscape:label="Layer 2">
    <path
       style="fill:#000000;fill-rule:nonzero;stroke:none;stroke-width:3;stroke-linecap:round;stroke-linejoin:round"
       d="m 111.27713,182.58256 c 0,0.40497 0,1.53808 0,2.42985 0,1.09219 0,2.42985 0,3.64477 0,1.21492 0,2.55258 0,3.64477 0,0.89177 0,2.02488 0,2.42985 l 1.5,1.5 1.5,-1.5 c 0,-0.40497 0,-1.53808 0,-2.42985 0,-1.09219 0,-2.42985 0,-3.64477 0,-1.21492 0,-2.55258 0,-3.64477 0,-0.89177 0,-2.02488 0,-2.42985 l -1.5,-1.5 z"
       id="path15-8"
       inkscape:original-d="M 112.77713,182.58256 V 194.7318"
       inkscape:path-effect="#path-effect16-4"
       sodipodi:nodetypes="cc"
       transform="rotate(90,112.67587,180.9813)" />
    <path
       style="fill:#000000;fill-rule:nonzero;stroke:none;stroke-width:3;stroke-linecap:round;stroke-linejoin:round"
       d="m 111.27713,182.58256 c 0,0.40497 0,1.53808 0,2.42985 0,1.09219 0,2.42985 0,3.64477 0,1.21492 0,2.55258 0,3.64477 0,0.89177 0,2.02488 0,2.42985 l 1.5,1.5 1.5,-1.5 c 0,-0.40497 0,-1.53808 0,-2.42985 0,-1.09219 0,-2.42985 0,-3.64477 0,-1.21492 0,-2.55258 0,-3.64477 0,-0.89177 0,-2.02488 0,-2.42985 l -1.5,-1.5 z"
       id="path15-8-1"
       inkscape:original-d="M 112.77713,182.58256 V 194.7318"
       inkscape:path-effect="#path-effect16-4-5"
       sodipodi:nodetypes="cc"
       transform="rotate(90,105.10126,188.55592)" />
    <path
       style="fill:#000000;fill-rule:nonzero;stroke:none;stroke-width:3;stroke-linecap:round;stroke-linejoin:round"
       d="m 111.27713,182.58256 c 0,0.40497 0,1.53808 0,2.42985 0,1.09219 0,2.42985 0,3.64477 0,1.21492 0,2.55258 0,3.64477 0,0.89177 0,2.02488 0,2.42985 l 1.5,1.5 1.5,-1.5 c 0,-0.40497 0,-1.53808 0,-2.42985 0,-1.09219 0,-2.42985 0,-3.64477 0,-1.21492 0,-2.55258 0,-3.64477 0,-0.89177 0,-2.02488 0,-2.42985 l -1.5,-1.5 z"
       id="path15-8-1-2"
       inkscape:original-d="M 112.77713,182.58256 V 194.7318"
       inkscape:path-effect="#path-effect16-4-5-1"
       sodipodi:nodetypes="cc"
       transform="rotate(90,127.93309,165.72409)" />
    <path
       style="fill:#000000;fill-rule:nonzero;stroke:none;stroke-width:3;stroke-linecap:round;stroke-linejoin:round"
       d="m 111.27713,182.58256 c 0,0.40497 0,1.53808 0,2.42985 0,1.09219 0,2.42985 0,3.64477 0,1.21492 0,2.55258 0,3.64477 0,0.89177 0,2.02488 0,2.42985 l 1.5,1.5 1.5,-1.5 c 0,-0.40497 0,-1.53808 0,-2.42985 0,-1.09219 0,-2.42985 0,-3.64477 0,-1.21492 0,-2.55258 0,-3.64477 0,-0.89177 0,-2.02488 0,-2.42985 l -1.5,-1.5 z"
       id="path15-8-1-2-2"
       inkscape:original-d="M 112.77713,182.58256 V 194.7318"
       inkscape:path-effect="#path-effect16-4-5-1-1"
       sodipodi:nodetypes="cc"
       transform="rotate(90,120.31261,173.34456)" />
    <path
       style="fill:none;fill-rule:evenodd;stroke:#000000;stroke-width:3;stroke-linecap:butt;stroke-linejoin:round"
       d="m 105.00001,163.96401 c 0,-3.40015 -1e-5,-9.88426 -1e-5,-11.55081"
       id="path16"
       sodipodi:nodetypes="cc" />
    <path
       style="fill:none;fill-rule:evenodd;stroke:#000000;stroke-width:3;stroke-linecap:butt;stroke-linejoin:round"
       d="m 105.003,133.18044 c 0,-3.40015 -0.006,-32.52232 -0.006,-34.18887"
       id="path16-9"
       sodipodi:nodetypes="cc" />
    <path
       style="fill:none;fill-rule:evenodd;stroke:#000000;stroke-width:3;stroke-linecap:butt;stroke-linejoin:round"
       d="m 105.00001,194.40002 c 0,-3.40015 -1e-5,-9.88426 -1e-5,-11.55081"
       id="path16-7"
       sodipodi:nodetypes="cc" />
    <path
       style="fill:#000000;fill-rule:nonzero;stroke:none;stroke-width:3;stroke-linecap:butt;stroke-linejoin:round"
       d="m 125.50739,95.518528 c -1.368,0 -5.19562,0 -8.20802,0 -3.68943,0 -8.20803,0 -12.31204,10e-7 -4.10401,0 -8.622616,0 -12.312039,0 -3.012401,0 -6.840021,0 -8.208025,0 l -1.5,1.5 1.5,1.5 c 1.368004,0 5.195624,0 8.208025,0 3.689423,0 8.208029,0 12.312039,0 4.10401,-10e-7 8.62261,-10e-7 12.31204,-10e-7 3.0124,0 6.84002,0 8.20802,0 l 1.5,-1.5 z"
       id="path17"
       inkscape:path-effect="#path-effect17"
       inkscape:original-d="m 125.50739,97.018528 -41.040124,10e-7"
       sodipodi:nodetypes="cc" />
    <path
       style="fill:#000000;fill-rule:nonzero;stroke:none;stroke-width:3;stroke-linecap:butt;stroke-linejoin:round"
       d="m 125.50739,95.518528 c -1.368,0 -5.19562,0 -8.20802,0 -3.68943,0 -8.20803,0 -12.31204,10e-7 -4.10401,0 -8.622616,0 -12.312039,0 -3.012401,0 -6.840021,0 -8.208025,0 l -1.5,1.5 1.5,1.5 c 1.368004,0 5.195624,0 8.208025,0 3.689423,0 8.208029,0 12.312039,0 4.10401,-10e-7 8.62261,-10e-7 12.31204,-10e-7 3.0124,0 6.84002,0 8.20802,0 l 1.5,-1.5 z"
       id="path17-1"
       inkscape:path-effect="#path-effect17-4"
       inkscape:original-d="m 125.50739,97.018528 -41.040124,10e-7"
       sodipodi:nodetypes="cc"
       transform="translate(0.01267225,38.196661)" />
    <path
       style="fill:#000000;fill-rule:nonzero;stroke:none;stroke-width:3;stroke-linecap:butt;stroke-linejoin:round"
       d="m 126.45732,95.516113 c -1.42747,0 -5.42146,-10e-7 -8.56481,-10e-7 -3.84979,0 -8.5648,-1e-6 -12.84721,-1e-6 -4.2824,-10e-7 -8.997415,-2e-6 -12.847207,-2e-6 -3.143343,0 -7.137338,-10e-7 -8.564806,-10e-7 l -1.5,1.5 1.5,1.5 c 1.427468,0 5.421463,10e-7 8.564806,10e-7 3.849792,0 8.564807,10e-7 12.847207,10e-7 4.28241,10e-7 8.99742,2e-6 12.84721,2e-6 3.14335,0 7.13734,10e-7 8.56481,10e-7 l 1.5,-1.5 z"
       id="path17-1-1"
       inkscape:path-effect="#path-effect17-4-3"
       inkscape:original-d="m 126.45732,97.016113 -42.824033,-5e-6"
       sodipodi:nodetypes="cc"
       transform="translate(0.01266866,76.395742)" />
    <path
       style="fill:#000000;fill-rule:nonzero;stroke:none;stroke-width:3;stroke-linecap:butt;stroke-linejoin:round"
       d="m 125.52749,95.516116 c -1.36483,0 -5.18358,0 -8.18901,0 -3.68087,0 -8.189,0 -12.28351,0 -4.0945,0 -8.602635,0 -12.28351,0 -3.005422,0 -6.824172,0 -8.189006,0 l -1.5,1.5 1.5,1.5 c 1.364834,0 5.183584,0 8.189006,0 3.680875,0 8.18901,0 12.28351,0 4.09451,0 8.60264,0 12.28351,0 3.00543,0 6.82418,0 8.18901,0 l 1.5,-1.5 z"
       id="path17-1-1-4"
       inkscape:path-effect="#path-effect17-4-3-8"
       inkscape:original-d="M 125.52749,97.016116 H 84.582454"
       sodipodi:nodetypes="cc"
       transform="translate(-0.04530325,114.5924)" />
  </g>
</svg>
